<svg width="14" height="14" viewBox="0 0 14 14" fill="none" xmlns="http://www.w3.org/2000/svg">
<g opacity="0.4">
<path d="M2.8 11.9003C4.3464 11.9003 5.6 10.6467 5.6 9.10029C5.6 7.5539 4.3464 6.30029 2.8 6.30029C1.2536 6.30029 0 7.5539 0 9.10029C0 10.6467 1.2536 11.9003 2.8 11.9003Z" fill="black"/>
<path d="M9.45007 14C10.4166 14 11.2001 13.2165 11.2001 12.25C11.2001 11.2835 10.4166 10.5 9.45007 10.5C8.48357 10.5 7.70007 11.2835 7.70007 12.25C7.70007 13.2165 8.48357 14 9.45007 14Z" fill="black"/>
<path d="M9.79985 8.4C12.1194 8.4 13.9999 6.5196 13.9999 4.2C13.9999 1.8804 12.1194 0 9.79985 0C7.48026 0 5.59985 1.8804 5.59985 4.2C5.59985 6.5196 7.48026 8.4 9.79985 8.4Z" fill="black"/>
</g>
</svg>
