<svg width="14" height="12" viewBox="0 0 14 12" fill="none" xmlns="http://www.w3.org/2000/svg">
<path d="M12.3333 5.99984C12.3333 5.49317 12.6199 5.05317 13.0399 4.8265C13.4399 4.6065 13.6666 4.15317 13.6666 3.69317V1.99984C13.6666 1.2665 13.0666 0.666504 12.3333 0.666504H1.66659C0.933252 0.666504 0.339919 1.25984 0.339919 1.99317V3.69317C0.339919 4.15317 0.559919 4.6065 0.966585 4.81984C1.38659 5.05317 1.66659 5.49317 1.66659 5.99984C1.66659 6.5065 1.37992 6.95317 0.959919 7.17317C0.559919 7.39317 0.333252 7.8465 0.333252 8.3065V9.99984C0.333252 10.7332 0.933252 11.3332 1.66659 11.3332H12.3333C13.0666 11.3332 13.6666 10.7332 13.6666 9.99984V8.3065C13.6666 7.8465 13.4399 7.39317 13.0399 7.17317C12.6199 6.9465 12.3333 6.5065 12.3333 5.99984ZM8.66658 8.73317L6.99992 7.6665L5.33325 8.73984C5.07992 8.89984 4.75325 8.6665 4.83325 8.37317L5.33325 6.45317L3.79992 5.19984C3.56659 5.0065 3.68658 4.6265 3.99325 4.6065L5.96658 4.49317L6.68658 2.65984C6.79992 2.37984 7.19992 2.37984 7.30658 2.65984L8.02658 4.49984L9.99992 4.61317C10.2999 4.63317 10.4266 5.01317 10.1933 5.2065L8.65992 6.45984L9.16658 8.3665C9.24658 8.6665 8.91992 8.89984 8.66658 8.73317Z" fill="black" fill-opacity="0.4"/>
</svg>
