<svg width="14" height="14" viewBox="0 0 14 14" fill="none" xmlns="http://www.w3.org/2000/svg">
<path opacity="0.4" d="M12.6283 9.54705L10.6488 9.32103C10.1734 9.26648 9.70578 9.43014 9.37066 9.76526L7.93665 11.1993C5.73109 10.077 3.923 8.2767 2.80073 6.06335L4.24253 4.62155C4.57765 4.28643 4.74131 3.81882 4.68676 3.34341L4.46075 1.37945C4.36723 0.592307 3.70478 0 2.90984 0H1.56156C0.680898 0 -0.0516916 0.73259 0.00286293 1.61326C0.415919 8.26891 5.73888 13.5841 12.3867 13.9971C13.2674 14.0517 14 13.3191 14 12.4384V11.0902C14.0078 10.303 13.4155 9.64057 12.6283 9.54705Z" fill="black"/>
</svg>
