<svg width="12" height="12" viewBox="0 0 12 12" fill="none" xmlns="http://www.w3.org/2000/svg">
<path d="M10.8242 8.18314L9.12749 7.98942C8.72 7.94265 8.31919 8.08294 8.03195 8.37018L6.80281 9.59932C4.91234 8.63739 3.36255 7.09428 2.40061 5.19713L3.63644 3.96131C3.92368 3.67406 4.06396 3.27326 4.0172 2.86577L3.82348 1.18238C3.74332 0.507689 3.17551 0 2.49414 0H1.33848C0.583624 0 -0.0443069 0.627931 0.00245392 1.38278C0.3565 7.0876 4.91902 11.6434 10.6172 11.9975C11.372 12.0442 11.9999 11.4163 11.9999 10.6615V9.5058C12.0066 8.83111 11.4989 8.2633 10.8242 8.18314Z" fill="#1966FB"/>
</svg>
