<svg width="14" height="14" viewBox="0 0 14 14" fill="none" xmlns="http://www.w3.org/2000/svg">
<g opacity="0.4">
<g clip-path="url(#clip0)">
<path d="M8.77556 6.4297C8.5845 6.46281 8.39453 6.49137 8.20823 6.51625L8.04216 4.78243C9.1561 4.07024 9.48656 2.82007 9.575 1.96391C9.60257 1.68818 9.49132 1.41671 9.27825 1.23963C9.02076 1.02388 8.67403 0.947834 8.34992 1.03598C7.54819 1.2436 6.72565 1.3599 5.89786 1.3828C5.07006 1.3599 4.24742 1.2436 3.4458 1.03598C3.12158 0.947834 2.77466 1.02428 2.51746 1.24052C2.30439 1.41731 2.19295 1.68838 2.22011 1.96391C2.30846 2.81987 2.63872 4.06984 3.75227 4.78203L3.58748 6.51655C3.40118 6.49137 3.21121 6.46281 3.02015 6.42989C2.69107 6.3704 2.35714 6.50515 2.16162 6.77642C1.97194 7.035 1.94726 7.37945 2.09796 7.66252C2.37052 8.12584 2.77882 8.49418 3.26753 8.71796L2.30241 13.3395C2.24302 13.6256 2.41871 13.908 2.70158 13.9814C2.98446 14.0548 3.27516 13.8933 3.36241 13.6143L4.13647 11.1813H7.65944L8.4333 13.6135C8.51986 13.8935 8.81136 14.0561 9.09512 13.9822C9.37879 13.9084 9.55428 13.6245 9.4933 13.3377L8.52908 8.71687C9.01778 8.49319 9.42608 8.12475 9.69864 7.66143C9.84935 7.37835 9.82456 7.03401 9.63499 6.77533C9.43897 6.50416 9.10464 6.36971 8.77556 6.4297ZM7.77921 6.5689C7.63029 6.58526 7.48662 6.59964 7.34821 6.61223L7.21019 5.15801C7.35347 5.11607 7.49376 5.06481 7.63039 5.00472L7.77921 6.5689ZM5.89786 5.3332C6.19491 5.33429 6.49146 5.30891 6.78395 5.25745L6.91542 6.64475C6.31438 6.68461 5.90539 6.6859 5.89746 6.6859C5.88943 6.6859 5.48093 6.68461 4.87939 6.64475L5.01087 5.25745C5.30375 5.30901 5.60051 5.33439 5.89786 5.3332ZM2.65112 1.9195C2.63951 1.78515 2.69553 1.65388 2.80053 1.5693C2.90543 1.48116 3.03829 1.43337 3.17522 1.43456C3.22975 1.43495 3.28398 1.44219 3.33663 1.45617C4.17365 1.6745 5.03308 1.79526 5.89786 1.81598C6.76264 1.79526 7.62206 1.6745 8.45908 1.45617C8.64607 1.40432 8.84655 1.44695 8.99627 1.57039C9.10087 1.65507 9.15649 1.78624 9.1446 1.92039C9.0043 3.27933 8.32671 4.90002 5.89786 4.90002C5.26439 4.92183 4.63668 4.7739 4.07976 4.4714C4.07668 4.46991 4.0743 4.46753 4.07133 4.46604C3.09312 3.89227 2.74679 2.84585 2.65112 1.9195ZM4.16621 5.00383C4.30274 5.06391 4.44314 5.11517 4.58641 5.15711L4.44839 6.61114C4.30988 6.59904 4.16621 6.58457 4.01739 6.56781L4.16621 5.00383ZM2.94916 13.484C2.93409 13.5317 2.88967 13.5641 2.8395 13.5639C2.80529 13.5641 2.77287 13.5487 2.75136 13.522C2.72895 13.4955 2.71983 13.4602 2.72647 13.4261L3.67057 8.90059C3.8877 8.98854 4.1093 9.06508 4.33447 9.12992L2.94916 13.484ZM7.04065 9.23691L7.24569 9.88177H4.55002L4.75506 9.23691C5.5086 9.39634 6.28712 9.39634 7.04065 9.23691ZM4.27339 10.7481L4.41111 10.315H7.38371L7.52142 10.7481H4.27339ZM9.06885 13.4244C9.07598 13.459 9.06696 13.495 9.04436 13.522C9.02284 13.5487 8.99042 13.5641 8.95621 13.5639C8.90575 13.5641 8.86113 13.5313 8.84635 13.4831L7.46124 9.12953C7.68641 9.06468 7.90801 8.98814 8.12514 8.9001L9.06885 13.4244ZM9.31483 7.45847C9.02919 7.99824 8.32632 8.43856 7.28297 8.73204C6.37714 8.98695 5.41857 8.98695 4.51274 8.73204C3.46939 8.43856 2.76653 7.99824 2.48088 7.45847C2.40681 7.32174 2.41901 7.15438 2.51231 7.02985C2.61056 6.89262 2.77961 6.825 2.94549 6.85653C3.92142 7.01943 4.90845 7.10718 5.89786 7.11908C6.88707 7.10718 7.8738 7.01934 8.84963 6.85653C9.0154 6.825 9.18445 6.89262 9.28281 7.02985C9.37621 7.15418 9.3887 7.32154 9.31483 7.45847Z" fill="black"/>
<path d="M9.62475 1.96889L9.62474 1.96905C9.53646 2.82363 9.2076 4.08059 8.09483 4.80792L8.25305 6.45974C8.42219 6.43661 8.59407 6.4104 8.76679 6.38047C9.11476 6.31712 9.46825 6.45931 9.67551 6.74604C9.87625 7.02017 9.90246 7.38499 9.74278 7.68492L9.74178 7.6868L9.74174 7.68678C9.47074 8.14744 9.06808 8.51605 8.58611 8.74542L9.54221 13.3273L9.62475 1.96889ZM9.62475 1.96889C9.65397 1.67666 9.53609 1.38895 9.31029 1.20125C9.04034 0.975095 8.67688 0.895344 8.33708 0.987651C7.53955 1.19416 6.72132 1.30989 5.89786 1.33278C5.07439 1.30989 4.25605 1.19416 3.45862 0.987649C3.11872 0.895344 2.75506 0.975499 2.48541 1.20215C2.25964 1.38953 2.14156 1.67681 2.17036 1.96882L2.17035 1.96882M9.62475 1.96889L2.17035 1.96882M2.17035 1.96882L2.17038 1.96905M2.17035 1.96882L2.17038 1.96905M2.17038 1.96905C2.25856 2.82343 2.58722 4.0802 3.69962 4.80753L3.54263 6.45996C3.37347 6.4366 3.20157 6.41041 3.02884 6.38065C2.68095 6.31784 2.32794 6.46028 2.12118 6.74702C1.92025 7.02108 1.89413 7.38606 2.05383 7.68601L2.05379 7.68603M2.17038 1.96905L2.05379 7.68603M2.05379 7.68603L2.05487 7.68787M2.05379 7.68603L2.05487 7.68787M2.05487 7.68787C2.32586 8.14853 2.72852 8.51705 3.21049 8.74651L2.25346 13.3293L2.25345 13.3293M2.05487 7.68787L2.25345 13.3293M2.25345 13.3293C2.18864 13.6416 2.38037 13.9497 2.68903 14.0298M2.25345 13.3293L2.68903 14.0298M4.07976 4.4714C4.63668 4.7739 5.26439 4.92183 5.89786 4.90002L4.07976 4.4714ZM4.07976 4.4714C4.07818 4.47064 4.07679 4.46964 4.0754 4.46865C4.07408 4.4677 4.07278 4.46677 4.07133 4.46604L4.09663 4.42292C4.09634 4.42275 4.09605 4.42258 4.09576 4.42241C3.13863 3.8605 2.79595 2.83439 2.7009 1.91479C2.69087 1.79717 2.73997 1.68229 2.8319 1.60824L2.8319 1.60825M4.07976 4.4714L2.8319 1.60825M2.8319 1.60825L2.8327 1.60758C2.92849 1.5271 3.04979 1.48347 3.17478 1.48456L3.17485 1.48456C3.2252 1.48492 3.27525 1.4916 3.3238 1.5045L3.32401 1.50455C4.16476 1.72385 5.02802 1.84516 5.89666 1.86597L5.89666 1.86603L5.89905 1.86597C6.76769 1.84516 7.63095 1.72385 8.4717 1.50455L8.4717 1.50456L8.47244 1.50435C8.64371 1.45686 8.82733 1.49591 8.96446 1.60897L8.96481 1.60925C9.05639 1.68338 9.10513 1.79819 9.09482 1.91564C9.02516 2.5899 8.82264 3.32322 8.3414 3.88736C7.86175 4.44963 7.09994 4.85002 5.89786 4.84999L5.89614 4.85005C5.27181 4.87155 4.65316 4.72582 4.10424 4.4278L2.8319 1.60825ZM2.68903 14.0298C2.99767 14.1098 3.31483 13.9337 3.41009 13.6294M2.68903 14.0298L3.41009 13.6294M3.41009 13.6294C3.4101 13.6294 3.41012 13.6293 3.41013 13.6293M3.41009 13.6294L3.41013 13.6293M3.41013 13.6293L4.17303 11.2313H7.62288L8.38553 13.6282C8.38555 13.6283 8.38558 13.6284 8.3856 13.6284C8.48014 13.9339 8.79814 14.1112 9.10772 14.0306M3.41013 13.6293L9.4933 13.3377L9.54225 13.3275C9.60867 13.6403 9.41719 13.9501 9.10772 14.0306M9.10772 14.0306C9.10771 14.0306 9.10771 14.0306 9.1077 14.0306L9.09512 13.9822L9.10772 14.0306ZM2.90151 13.4688L2.90148 13.4689C2.89301 13.4957 2.86802 13.514 2.8397 13.5139L2.83921 13.5139C2.82022 13.514 2.80223 13.5055 2.79027 13.4906L2.79028 13.4906L2.78958 13.4898C2.77702 13.4749 2.77184 13.4551 2.77549 13.4359C2.77551 13.4358 2.77553 13.4357 2.77555 13.4356L3.70734 8.96915C3.89237 9.04219 4.08053 9.10706 4.2713 9.16356L2.90151 13.4688ZM8.894 13.4679L7.52441 9.16317C7.71517 9.10666 7.90334 9.04179 8.08837 8.96867L9.01988 13.4345C9.01988 13.4345 9.01988 13.4345 9.01988 13.4345C9.02394 13.4542 9.01878 13.4747 9.00597 13.49L9.00544 13.4906C8.99348 13.5055 8.97549 13.514 8.9565 13.5139L8.95602 13.5139C8.92755 13.514 8.90246 13.4955 8.89416 13.4684L8.894 13.4679ZM9.27083 7.43473L9.27064 7.43508C8.99487 7.95619 8.30907 8.39147 7.26943 8.68391L7.26943 8.68391C6.37246 8.93633 5.42325 8.93633 4.52629 8.68391L4.52628 8.68391C3.48664 8.39147 2.80084 7.95619 2.52507 7.43508L2.52484 7.43465C2.46007 7.31508 2.47074 7.16872 2.55232 7.05982L2.55233 7.05983L2.55296 7.05895C2.63986 6.93759 2.7894 6.87776 2.93615 6.90567L2.93726 6.90585C3.91571 7.06917 4.90529 7.15715 5.89725 7.16909L5.89846 7.16908C6.89023 7.15715 7.87951 7.06907 8.85785 6.90585L8.85786 6.90586L8.85897 6.90565C9.00561 6.87776 9.15516 6.93757 9.24217 7.05897L9.24216 7.05898L9.24283 7.05988C9.3245 7.16859 9.33544 7.31496 9.27083 7.43473ZM7.5871 5.07765L7.72476 6.52453C7.61115 6.53677 7.50065 6.54786 7.39328 6.55787L7.26385 5.19414C7.37348 5.16063 7.48133 5.12172 7.5871 5.07765ZM5.89786 5.3832C6.17977 5.38423 6.46123 5.36165 6.73926 5.31579L6.86079 6.5982C6.28923 6.6347 5.90432 6.6359 5.89746 6.6359C5.8905 6.6359 5.50604 6.6347 4.93403 6.5982L5.05556 5.3158C5.33396 5.36174 5.61565 5.38432 5.89786 5.3832ZM4.07183 6.52356L4.2095 5.07677C4.31523 5.12084 4.42313 5.15974 4.53275 5.19325L4.40331 6.55693C4.29591 6.5472 4.18541 6.53606 4.07183 6.52356ZM4.78905 9.29502C5.52079 9.44363 6.27492 9.44363 7.00666 9.29502L7.17733 9.83177H4.61839L4.78905 9.29502ZM7.34714 10.365L7.45306 10.6981H4.34176L4.44768 10.365H7.34714Z" stroke="black" stroke-opacity="0.4" stroke-width="0.1"/>
</g>
</g>
<defs>
<clipPath id="clip0">
<rect x="1" y="1" width="13" height="13" fill="white"/>
</clipPath>
</defs>
</svg>
