<svg width="14" height="12" viewBox="0 0 14 12" fill="none" xmlns="http://www.w3.org/2000/svg">
<path opacity="0.4" d="M12.6 0H1.4C0.63 0 0.00699999 0.63 0.00699999 1.4L0 9.8C0 10.57 0.63 11.2 1.4 11.2H12.6C13.37 11.2 14 10.57 14 9.8V1.4C14 0.63 13.37 0 12.6 0ZM12.32 2.975L7.371 6.069C7.147 6.209 6.853 6.209 6.629 6.069L1.68 2.975C1.505 2.863 1.4 2.674 1.4 2.471C1.4 2.002 1.911 1.722 2.31 1.967L7 4.9L11.69 1.967C12.089 1.722 12.6 2.002 12.6 2.471C12.6 2.674 12.495 2.863 12.32 2.975Z" fill="black"/>
</svg>
