<svg width="14" height="14" viewBox="0 0 14 14" fill="none" xmlns="http://www.w3.org/2000/svg">
<g opacity="0.4">
<path d="M3.50417 7.12438H10.4954C10.4998 7.08504 10.4998 7.04122 10.4998 7.00195C10.4998 5.06813 8.93351 3.50195 6.99976 3.50195C5.06601 3.50195 3.49976 5.06813 3.49976 7.00195C3.49983 7.04122 3.49983 7.08497 3.50417 7.12438Z" fill="black"/>
<path d="M6.5625 0H7.4375V2.1875H6.5625V0Z" fill="black"/>
<path d="M1.73999 2.35986L2.35857 1.74129L3.90499 3.2877L3.28641 3.90627L1.73999 2.35986Z" fill="black"/>
<path d="M10.0918 3.28857L11.6382 1.74216L12.2568 2.36074L10.7104 3.90715L10.0918 3.28857Z" fill="black"/>
<path d="M0 7.96875H14V8.84375H0V7.96875Z" fill="black"/>
<path d="M2.1875 9.6875H11.8125V10.5625H2.1875V9.6875Z" fill="black"/>
<path d="M4.375 11.4062H9.625V12.2812H4.375V11.4062Z" fill="black"/>
<path d="M6.5625 13.125H7.4375V14H6.5625V13.125Z" fill="black"/>
<path d="M11.8125 6.25H14V7.125H11.8125V6.25Z" fill="black"/>
<path d="M0 6.25H2.1875V7.125H0V6.25Z" fill="black"/>
</g>
</svg>
