<svg width="18" height="13" viewBox="0 0 18 13" fill="none" xmlns="http://www.w3.org/2000/svg">
<path d="M8 12.28H10C10.55 12.28 11 11.8195 11 11.2567C11 10.6938 10.55 10.2333 10 10.2333H8C7.45 10.2333 7 10.6938 7 11.2567C7 11.8195 7.45 12.28 8 12.28ZM0 1.02333C0 1.58617 0.45 2.04667 1 2.04667H17C17.55 2.04667 18 1.58617 18 1.02333C18 0.4605 17.55 0 17 0H1C0.45 0 0 0.4605 0 1.02333ZM4 7.16333H14C14.55 7.16333 15 6.70283 15 6.14C15 5.57717 14.55 5.11667 14 5.11667H4C3.45 5.11667 3 5.57717 3 6.14C3 6.70283 3.45 7.16333 4 7.16333Z" fill="black" fill-opacity="0.4"/>
</svg>
