<svg width="18" height="17" viewBox="0 0 18 17" fill="none" xmlns="http://www.w3.org/2000/svg">
<path d="M8.76291 16.2387C13.2034 16.2387 16.8032 12.6809 16.8032 8.29198C16.8032 3.9031 13.2034 0.345215 8.76291 0.345215C4.3224 0.345215 0.722656 3.9031 0.722656 8.29198C0.722656 12.6809 4.3224 16.2387 8.76291 16.2387Z" fill="#EF4136"/>
<path d="M15.573 4.06934C16.2871 5.91271 16.2814 7.95279 15.5572 9.79229C14.833 11.6318 13.442 13.1391 11.6551 14.0206C9.86823 14.902 7.81337 15.0947 5.89067 14.5609C3.96798 14.0272 2.3151 12.8052 1.25391 11.1331C1.65474 12.1687 2.27042 13.11 3.06138 13.8964C3.85233 14.6828 4.80103 15.2968 5.84649 15.6991C6.89194 16.1014 8.011 16.2829 9.13171 16.2321C10.2524 16.1813 11.35 15.8992 12.3538 15.404C13.3576 14.9088 14.2454 14.2115 14.9602 13.3569C15.6749 12.5022 16.2008 11.5092 16.5041 10.4416C16.8073 9.37402 16.8811 8.25554 16.7207 7.15809C16.5603 6.06063 16.1694 5.0085 15.573 4.06934Z" fill="#BE3C36"/>
<path d="M8.76288 0C7.10353 0 5.48144 0.486333 4.10174 1.3975C2.72204 2.30867 1.64669 3.60374 1.01169 5.11896C0.376682 6.63417 0.210535 8.30147 0.534259 9.91002C0.857982 11.5186 1.65704 12.9961 2.83037 14.1558C4.00371 15.3155 5.49864 16.1053 7.12611 16.4252C8.75357 16.7452 10.4405 16.581 11.9735 15.9533C13.5066 15.3257 14.8169 14.2629 15.7388 12.8992C16.6607 11.5356 17.1527 9.93233 17.1527 8.29227C17.1502 6.0938 16.2654 3.98609 14.6926 2.43153C13.1197 0.87697 10.9872 0.00251477 8.76288 0V0ZM8.76288 15.8935C7.24181 15.8935 5.75489 15.4477 4.49017 14.6125C3.22544 13.7772 2.23971 12.5901 1.65762 11.2011C1.07553 9.8122 0.923231 8.28384 1.21998 6.80934C1.51672 5.33484 2.24919 3.98043 3.32475 2.91738C4.40031 1.85432 5.77066 1.13037 7.2625 0.837079C8.75435 0.543783 10.3007 0.694313 11.706 1.26963C13.1113 1.84495 14.3124 2.81923 15.1574 4.06924C16.0025 5.31926 16.4536 6.78889 16.4536 8.29227C16.4513 10.3076 15.6402 12.2396 14.1985 13.6647C12.7567 15.0897 10.8019 15.8912 8.76288 15.8935Z" fill="black"/>
<path d="M8.76266 9.3291C7.83716 9.33326 6.93635 9.62453 6.18731 10.1618C5.43827 10.6991 4.87882 11.4553 4.58789 12.3236L5.24676 12.5538C5.48591 11.8179 5.95522 11.1761 6.58707 10.7208C7.21892 10.2655 7.9807 10.0201 8.76266 10.0201C9.54462 10.0201 10.3064 10.2655 10.9383 10.7208C11.5701 11.1761 12.0394 11.8179 12.2786 12.5538L12.9374 12.3236C12.6465 11.4553 12.0871 10.6991 11.338 10.1618C10.589 9.62453 9.68816 9.33326 8.76266 9.3291Z" fill="black"/>
<path d="M4.4082 5.14795L4.72072 4.53018L7.51591 5.91152L7.20339 6.52929L4.4082 5.14795Z" fill="black"/>
<path d="M9.99951 5.91016L12.7947 4.52882L13.1072 5.14659L10.312 6.52793L9.99951 5.91016Z" fill="black"/>
</svg>
