<svg width="18" height="17" viewBox="0 0 18 17" fill="none" xmlns="http://www.w3.org/2000/svg">
<path d="M9.00021 16.6237C13.4407 16.6237 17.0405 12.9816 17.0405 8.48885C17.0405 3.9961 13.4407 0.354004 9.00021 0.354004C4.5597 0.354004 0.959961 3.9961 0.959961 8.48885C0.959961 12.9816 4.5597 16.6237 9.00021 16.6237Z" fill="#FFD241"/>
<path d="M15.8103 4.16602C16.5244 6.05302 16.5187 8.14138 15.7945 10.0244C15.0703 11.9075 13.6793 13.4504 11.8924 14.3528C10.1055 15.2551 8.05067 15.4523 6.12798 14.9059C4.20529 14.3595 2.55241 13.1087 1.49121 11.397C1.89204 12.4571 2.50773 13.4207 3.29868 14.2257C4.08963 15.0306 5.03834 15.6592 6.08379 16.071C7.12925 16.4828 8.24831 16.6687 9.36901 16.6166C10.4897 16.5646 11.5873 16.2759 12.5911 15.769C13.5949 15.2621 14.4827 14.5482 15.1975 13.6733C15.9123 12.7985 16.4382 11.7819 16.7414 10.6891C17.0446 9.59625 17.1184 8.4513 16.958 7.32787C16.7977 6.20444 16.4067 5.12741 15.8103 4.16602Z" fill="#FFB028"/>
<path d="M9.00018 0C7.34083 0 5.71875 0.497844 4.33904 1.43058C2.95934 2.36331 1.884 3.68904 1.24899 5.24011C0.613987 6.79119 0.44784 8.49795 0.771564 10.1446C1.09529 11.7912 1.89434 13.3037 3.06768 14.4908C4.24102 15.678 5.73594 16.4864 7.36341 16.814C8.99088 17.1415 10.6778 16.9734 12.2108 16.3309C13.7439 15.6884 15.0542 14.6004 15.9761 13.2045C16.898 11.8086 17.39 10.1674 17.39 8.48853C17.3875 6.23802 16.5027 4.08043 14.9299 2.48908C13.357 0.897726 11.2245 0.00257429 9.00018 0V0ZM9.00018 16.2697C7.47911 16.2697 5.9922 15.8133 4.72747 14.9583C3.46275 14.1033 2.47701 12.8881 1.89493 11.4663C1.31284 10.0444 1.16054 8.4799 1.45728 6.9705C1.75403 5.46111 2.48649 4.07464 3.56205 2.98643C4.63762 1.89821 6.00796 1.15713 7.49981 0.85689C8.99165 0.556653 10.538 0.710746 11.9433 1.29968C13.3486 1.88862 14.5497 2.88595 15.3947 4.16556C16.2398 5.44516 16.6909 6.94957 16.6909 8.48853C16.6886 10.5515 15.8776 12.5293 14.4358 13.9881C12.994 15.4468 11.0392 16.2674 9.00018 16.2697Z" fill="black"/>
<path d="M5.50439 4.24414H6.9027V7.07365H5.50439V4.24414Z" fill="black"/>
<path d="M11.0977 4.24414H12.496V7.07365H11.0977V4.24414Z" fill="black"/>
<path d="M4.80518 12.0254H13.195V12.7328H4.80518V12.0254Z" fill="black"/>
</svg>
