<svg width="18" height="17" viewBox="0 0 18 17" fill="none" xmlns="http://www.w3.org/2000/svg">
<path d="M9.01682 16.4301C13.4573 16.4301 17.0571 12.8304 17.0571 8.38986C17.0571 3.94935 13.4573 0.349609 9.01682 0.349609C4.57631 0.349609 0.976562 3.94935 0.976562 8.38986C0.976562 12.8304 4.57631 16.4301 9.01682 16.4301Z" fill="#FFD241"/>
<path d="M15.8269 4.11719C16.541 5.98225 16.5353 8.04632 15.8111 9.90748C15.0869 11.7686 13.6959 13.2936 11.909 14.1855C10.1221 15.0773 8.06727 15.2722 6.14458 14.7322C4.22189 14.1922 2.56901 12.9559 1.50781 11.264C1.90864 12.3119 2.52433 13.2642 3.31528 14.0599C4.10623 14.8555 5.05494 15.4768 6.10039 15.8838C7.14585 16.2908 8.26491 16.4745 9.38562 16.423C10.5063 16.3716 11.6039 16.0862 12.6077 15.5852C13.6115 15.0842 14.4993 14.3787 15.2141 13.514C15.9289 12.6493 16.4548 11.6445 16.758 10.5644C17.0612 9.48428 17.135 8.35264 16.9746 7.24228C16.8143 6.13191 16.4233 5.0674 15.8269 4.11719Z" fill="#FFB028"/>
<path d="M13.2121 9.43848C13.2121 10.551 12.7701 11.618 11.9834 12.4047C11.1967 13.1914 10.1297 13.6334 9.01718 13.6334C7.90462 13.6334 6.83763 13.1914 6.05093 12.4047C5.26423 11.618 4.82227 10.551 4.82227 9.43848H13.2121Z" fill="#EF4136"/>
<path d="M9.01679 0C7.35743 0 5.73535 0.492055 4.35565 1.41394C2.97595 2.33583 1.9006 3.64614 1.26559 5.17918C0.630588 6.71222 0.464442 8.39914 0.788165 10.0266C1.11189 11.6541 1.91094 13.149 3.08428 14.3223C4.25762 15.4957 5.75254 16.2947 7.38001 16.6184C9.00748 16.9422 10.6944 16.776 12.2274 16.141C13.7605 15.506 15.0708 14.4307 15.9927 13.051C16.9146 11.6713 17.4066 10.0492 17.4066 8.38983C17.4041 6.16549 16.5193 4.03298 14.9465 2.46013C13.3736 0.887287 11.2411 0.00254435 9.01679 0V0ZM9.01679 16.0805C7.49571 16.0805 6.0088 15.6295 4.74407 14.7844C3.47935 13.9393 2.49362 12.7382 1.91153 11.3329C1.32944 9.92764 1.17714 8.3813 1.47388 6.88945C1.77063 5.39761 2.5031 4.02726 3.57866 2.9517C4.65422 1.87614 6.02456 1.14367 7.51641 0.846927C9.00826 0.55018 10.5546 0.702481 11.9599 1.28457C13.3652 1.86666 14.5663 2.85239 15.4114 4.11712C16.2564 5.38184 16.7075 6.86876 16.7075 8.38983C16.7052 10.4288 15.8942 12.3836 14.4524 13.8254C13.0106 15.2672 11.0558 16.0782 9.01679 16.0805Z" fill="black"/>
<path d="M4.47266 9.43893C4.47266 10.6442 4.95145 11.8001 5.80371 12.6524C6.65596 13.5046 7.81187 13.9834 9.01715 13.9834C10.2224 13.9834 11.3783 13.5046 12.2306 12.6524C13.0828 11.8001 13.5616 10.6442 13.5616 9.43893V9.08936H4.47266V9.43893ZM12.8468 9.78851C12.7595 10.7439 12.3183 11.6321 11.6098 12.2789C10.9012 12.9257 9.9765 13.2843 9.01715 13.2843C8.0578 13.2843 7.13309 12.9257 6.42454 12.2789C5.71599 11.6321 5.27478 10.7439 5.18751 9.78851H12.8468Z" fill="black"/>
<path d="M6.22054 5.59368C6.49858 5.59399 6.76516 5.70457 6.96176 5.90118C7.15837 6.09779 7.26896 6.36436 7.26927 6.64241H7.96842C7.96842 6.17884 7.78427 5.73426 7.45648 5.40647C7.12868 5.07868 6.6841 4.89453 6.22054 4.89453C5.75697 4.89453 5.31239 5.07868 4.9846 5.40647C4.65681 5.73426 4.47266 6.17884 4.47266 6.64241H5.17181C5.17211 6.36436 5.2827 6.09779 5.47931 5.90118C5.67592 5.70457 5.94249 5.59399 6.22054 5.59368Z" fill="black"/>
<path d="M11.8138 4.89453C11.3504 4.89508 10.9061 5.0794 10.5785 5.40707C10.2508 5.73475 10.0665 6.17901 10.0659 6.64241H10.7651C10.7651 6.36427 10.8756 6.09752 11.0722 5.90085C11.2689 5.70417 11.5357 5.59368 11.8138 5.59368C12.0919 5.59368 12.3587 5.70417 12.5554 5.90085C12.752 6.09752 12.8625 6.36427 12.8625 6.64241H13.5617C13.5611 6.17901 13.3768 5.73475 13.0491 5.40707C12.7215 5.0794 12.2772 4.89508 11.8138 4.89453Z" fill="black"/>
</svg>
