<svg width="28" height="28" viewBox="0 0 28 28" fill="none" xmlns="http://www.w3.org/2000/svg">
<path d="M16.6797 14C16.6797 15.48 15.48 16.6797 14 16.6797C12.52 16.6797 11.3203 15.48 11.3203 14C11.3203 12.52 12.52 11.3203 14 11.3203C15.48 11.3203 16.6797 12.52 16.6797 14Z" fill="#DD1F91"/>
<path d="M20.2665 9.259C20.1377 8.90994 19.9322 8.59399 19.6651 8.33466C19.4058 8.06763 19.0901 7.86212 18.7408 7.73331C18.4575 7.62329 18.032 7.49234 17.2482 7.45667C16.4003 7.418 16.1461 7.40967 13.9996 7.40967C11.8529 7.40967 11.5987 7.41779 10.7511 7.45645C9.96729 7.49234 9.54153 7.62329 9.25848 7.73331C8.90921 7.86212 8.59326 8.06763 8.33414 8.33466C8.06711 8.59399 7.8616 8.90973 7.73257 9.259C7.62256 9.54227 7.49161 9.96802 7.45593 10.7518C7.41727 11.5995 7.40894 11.8537 7.40894 14.0004C7.40894 16.1469 7.41727 16.4011 7.45593 17.2489C7.49161 18.0327 7.62256 18.4583 7.73257 18.7415C7.8616 19.0908 8.06689 19.4065 8.33392 19.6659C8.59326 19.9329 8.909 20.1384 9.25827 20.2672C9.54153 20.3774 9.96729 20.5084 10.7511 20.5441C11.5987 20.5827 11.8527 20.5909 13.9994 20.5909C16.1463 20.5909 16.4005 20.5827 17.248 20.5441C18.0318 20.5084 18.4575 20.3774 18.7408 20.2672C19.4419 19.9968 19.996 19.4426 20.2665 18.7415C20.3765 18.4583 20.5074 18.0327 20.5433 17.2489C20.582 16.4011 20.5901 16.1469 20.5901 14.0004C20.5901 11.8537 20.582 11.5995 20.5433 10.7518C20.5077 9.96802 20.3767 9.54227 20.2665 9.259ZM13.9996 18.1282C11.7196 18.1282 9.87137 16.2802 9.87137 14.0002C9.87137 11.7202 11.7196 9.8721 13.9996 9.8721C16.2794 9.8721 18.1277 11.7202 18.1277 14.0002C18.1277 16.2802 16.2794 18.1282 13.9996 18.1282ZM18.2909 10.6736C17.7581 10.6736 17.3262 10.2417 17.3262 9.70889C17.3262 9.17612 17.7581 8.74417 18.2909 8.74417C18.8237 8.74417 19.2556 9.17612 19.2556 9.70889C19.2554 10.2417 18.8237 10.6736 18.2909 10.6736Z" fill="#DD1F91"/>
<path d="M14 0C6.2692 0 0 6.2692 0 14C0 21.7308 6.2692 28 14 28C21.7308 28 28 21.7308 28 14C28 6.2692 21.7308 0 14 0ZM21.9906 17.3144C21.9517 18.1701 21.8156 18.7544 21.6169 19.2658C21.1993 20.3457 20.3457 21.1993 19.2658 21.6169C18.7546 21.8156 18.1701 21.9515 17.3146 21.9906C16.4573 22.0297 16.1834 22.0391 14.0002 22.0391C11.8168 22.0391 11.5431 22.0297 10.6856 21.9906C9.83008 21.9515 9.24561 21.8156 8.73441 21.6169C8.19778 21.4151 7.71201 21.0987 7.31039 20.6896C6.90152 20.2882 6.58514 19.8022 6.38327 19.2658C6.1846 18.7546 6.04852 18.1701 6.00964 17.3146C5.97012 16.4571 5.96094 16.1832 5.96094 14C5.96094 11.8168 5.97012 11.5429 6.00943 10.6856C6.04831 9.82986 6.18417 9.24561 6.38284 8.73419C6.58472 8.19778 6.90131 7.71179 7.31039 7.31039C7.71179 6.90131 8.19778 6.58493 8.73419 6.38306C9.24561 6.18439 9.82986 6.04852 10.6856 6.00943C11.5429 5.97034 11.8168 5.96094 14 5.96094C16.1832 5.96094 16.4571 5.97034 17.3144 6.00964C18.1701 6.04852 18.7544 6.18439 19.2658 6.38284C19.8022 6.58472 20.2882 6.90131 20.6898 7.31039C21.0987 7.71201 21.4153 8.19778 21.6169 8.73419C21.8158 9.24561 21.9517 9.82986 21.9908 10.6856C22.0299 11.5429 22.0391 11.8168 22.0391 14C22.0391 16.1832 22.0299 16.4571 21.9906 17.3144Z" fill="#DD1F91"/>
</svg>
