<svg width="13" height="12" viewBox="0 0 13 12" fill="none" xmlns="http://www.w3.org/2000/svg">
<path d="M11.3334 0H2.00008C1.26675 0 0.666748 0.6 0.666748 1.33333V6.66667C0.666748 8.14 1.86008 9.33333 3.33341 9.33333H7.33342C8.80675 9.33333 10.0001 8.14 10.0001 6.66667V4.66667H11.3334C12.0734 4.66667 12.6667 4.06667 12.6667 3.33333V1.33333C12.6667 0.6 12.0667 0 11.3334 0ZM11.3334 3.33333H10.0001V1.33333H11.3334V3.33333ZM1.33341 10.6667H10.6667C11.0334 10.6667 11.3334 10.9667 11.3334 11.3333C11.3334 11.7 11.0334 12 10.6667 12H1.33341C0.966748 12 0.666748 11.7 0.666748 11.3333C0.666748 10.9667 0.966748 10.6667 1.33341 10.6667Z" fill="black" fill-opacity="0.4"/>
</svg>
