<svg width="12" height="13" viewBox="0 0 12 13" fill="none" xmlns="http://www.w3.org/2000/svg">
<path d="M11.8245 5.97843L6.42311 0.188183C6.18905 -0.0627277 5.81095 -0.0627277 5.57689 0.188183L0.175544 5.97843C-0.0585146 6.22934 -0.0585146 6.63466 0.175544 6.88557L5.57689 12.6758C5.81095 12.9267 6.18905 12.9267 6.42311 12.6758L11.8245 6.88557C12.0585 6.64109 12.0585 6.23577 11.8245 5.97843ZM7.1973 8.04362V6.43522H4.7967V7.72194C4.7967 8.07579 4.52663 8.3653 4.19655 8.3653C3.86647 8.3653 3.5964 8.07579 3.5964 7.72194V5.79185C3.5964 5.43801 3.86647 5.14849 4.19655 5.14849H7.1973V3.54009L9.08777 5.56668C9.2078 5.69535 9.2078 5.89479 9.08777 6.02346L7.1973 8.04362Z" fill="black" fill-opacity="0.4"/>
</svg>
