<svg width="13" height="14" viewBox="0 0 13 14" fill="none" xmlns="http://www.w3.org/2000/svg">
<path opacity="0.4" d="M9.1 2.8V7C9.1 7.77 9.73 8.4 10.5 8.4H11.2V13.3C11.2 13.685 11.515 14 11.9 14C12.285 14 12.6 13.685 12.6 13.3V0.791C12.6 0.336 12.173 6.25849e-08 11.732 0.105C10.22 0.476 9.1 1.757 9.1 2.8ZM5.6 4.9H4.2V0.7C4.2 0.315 3.885 0 3.5 0C3.115 0 2.8 0.315 2.8 0.7V4.9H1.4V0.7C1.4 0.315 1.085 0 0.7 0C0.315 0 0 0.315 0 0.7V4.9C0 6.447 1.253 7.7 2.8 7.7V13.3C2.8 13.685 3.115 14 3.5 14C3.885 14 4.2 13.685 4.2 13.3V7.7C5.747 7.7 7 6.447 7 4.9V0.7C7 0.315 6.685 0 6.3 0C5.915 0 5.6 0.315 5.6 0.7V4.9Z" fill="black"/>
</svg>
