<svg width="13" height="12" viewBox="0 0 13 12" fill="none" xmlns="http://www.w3.org/2000/svg">
<path d="M6.99995 0C6.63329 0 6.33329 0.3 6.33329 0.666667V6C6.33329 6.36667 6.63329 6.66667 6.99995 6.66667C7.36662 6.66667 7.66662 6.36667 7.66662 6V0.666667C7.66662 0.3 7.36662 0 6.99995 0ZM10.4266 1.90667C10.1666 2.16667 10.1733 2.57333 10.42 2.83333C11.1733 3.63333 11.64 4.7 11.6666 5.88C11.7266 8.43333 9.61329 10.6333 7.05995 10.66C4.45329 10.7 2.33329 8.6 2.33329 6C2.33329 4.77333 2.80662 3.66 3.57995 2.82667C3.82662 2.56667 3.82662 2.16 3.57329 1.90667C3.30662 1.64 2.87329 1.64667 2.61995 1.92C1.65329 2.94667 1.04662 4.31333 0.999954 5.82667C0.90662 9.08 3.55329 11.8933 6.80662 11.9933C10.2066 12.1 13 9.37333 13 5.99333C13 4.41333 12.3866 2.98667 11.3866 1.92C11.1333 1.64667 10.6933 1.64 10.4266 1.90667Z" fill="#FF4949"/>
</svg>
