<svg width="10" height="10" viewBox="0 0 10 10" fill="none" xmlns="http://www.w3.org/2000/svg">
<path d="M9.705 4.79L5.205 0.29C5.025 0.11 4.775 0 4.5 0H1C0.45 0 0 0.45 0 1V4.5C0 4.775 0.11 5.025 0.295 5.21L4.795 9.71C4.975 9.89 5.225 10 5.5 10C5.775 10 6.025 9.89 6.205 9.705L9.705 6.205C9.89 6.025 10 5.775 10 5.5C10 5.225 9.885 4.97 9.705 4.79ZM1.75 2.5C1.335 2.5 1 2.165 1 1.75C1 1.335 1.335 1 1.75 1C2.165 1 2.5 1.335 2.5 1.75C2.5 2.165 2.165 2.5 1.75 2.5ZM7.635 6.635L5.675 8.595C5.575 8.695 5.42 8.695 5.32 8.595L3.36 6.635C3.075 6.345 2.925 5.92 3.025 5.465C3.12 5.025 3.47 4.66 3.905 4.545C4.375 4.42 4.83 4.565 5.125 4.87L5.5 5.23L5.865 4.865C6.09 4.64 6.405 4.5 6.75 4.5C7.44 4.5 8 5.06 8 5.75C8 6.095 7.86 6.41 7.635 6.635Z" fill="white"/>
</svg>
