<svg width="276" height="190" viewBox="0 0 276 190" fill="none" xmlns="http://www.w3.org/2000/svg">
<line x1="139.107" y1="94.301" x2="221.301" y2="33.8932" stroke="#CFCFCF" stroke-linecap="round" stroke-dasharray="1 3"/>
<line x1="244.324" y1="151.209" x2="139.209" y2="95.6757" stroke="#CFCFCF" stroke-linecap="round" stroke-dasharray="1 3"/>
<line x1="57.6847" y1="48.8233" x2="134.823" y2="94.3153" stroke="#CFCFCF" stroke-linecap="round" stroke-dasharray="1 3"/>
<line x1="34.2104" y1="148.325" x2="134.325" y2="95.7896" stroke="#CFCFCF" stroke-linecap="round" stroke-dasharray="1 3"/>
<rect x="106" y="64" width="74" height="74" rx="37" fill="#72FF5B"/>
<rect x="192" y="5" width="62" height="62" rx="31" fill="#FCD669"/>
<rect x="220" y="128" width="56" height="56" rx="28" fill="#ECA2FF"/>
<rect x="44" y="36" width="36" height="36" rx="18" fill="#56EBFF"/>
<rect x="6" y="113" width="77" height="77" rx="38.5" fill="#9CB2FF"/>
<path d="M116 101.098C116 100.401 116.128 99.7146 116.384 99.0392C116.651 98.3637 117.036 97.7579 117.537 97.2219C118.039 96.6858 118.648 96.2515 119.363 95.9192C120.078 95.5868 120.895 95.4206 121.813 95.4206C122.913 95.4206 123.863 95.6511 124.664 96.1122C125.475 96.5625 126.078 97.1629 126.473 97.9134L124.087 99.6181C123.98 99.3394 123.836 99.1089 123.655 98.9266C123.484 98.7443 123.292 98.5996 123.078 98.4924C122.865 98.3852 122.641 98.3101 122.406 98.2672C122.181 98.2243 121.963 98.2029 121.749 98.2029C121.301 98.2029 120.911 98.294 120.58 98.4763C120.26 98.6478 119.993 98.8784 119.779 99.1678C119.577 99.4466 119.422 99.7682 119.315 100.133C119.219 100.487 119.171 100.84 119.171 101.194C119.171 101.591 119.23 101.972 119.347 102.336C119.464 102.701 119.635 103.022 119.859 103.301C120.084 103.58 120.356 103.805 120.676 103.976C121.007 104.137 121.375 104.218 121.781 104.218C121.995 104.218 122.214 104.196 122.438 104.153C122.662 104.1 122.875 104.019 123.078 103.912C123.292 103.794 123.479 103.649 123.639 103.478C123.81 103.296 123.943 103.076 124.039 102.819L126.585 104.346C126.415 104.765 126.153 105.14 125.801 105.472C125.459 105.805 125.064 106.083 124.616 106.308C124.178 106.534 123.703 106.705 123.19 106.823C122.689 106.941 122.198 107 121.717 107C120.874 107 120.1 106.834 119.395 106.501C118.701 106.158 118.098 105.708 117.585 105.151C117.084 104.593 116.694 103.96 116.416 103.253C116.139 102.545 116 101.827 116 101.098Z" fill="black"/>
<path d="M129.97 106.904V95.4849H135.19C135.746 95.4849 136.258 95.6029 136.728 95.8388C137.198 96.0639 137.598 96.3641 137.929 96.7394C138.27 97.1039 138.537 97.5274 138.73 98.0099C138.922 98.4816 139.018 98.9588 139.018 99.4412C139.018 100.106 138.874 100.728 138.585 101.307C138.297 101.875 137.897 102.341 137.384 102.706L139.786 106.904H136.263L134.262 103.398H133.093V106.904H129.97ZM133.093 100.664H135.062C135.254 100.664 135.431 100.556 135.591 100.342C135.762 100.127 135.847 99.8272 135.847 99.4412C135.847 99.0445 135.751 98.7443 135.559 98.5406C135.367 98.3262 135.174 98.219 134.982 98.219H133.093V100.664Z" fill="black"/>
<path d="M150.441 105.563L149.833 104.92C149.374 105.199 148.893 105.402 148.391 105.531C147.9 105.66 147.404 105.724 146.902 105.724C146.24 105.724 145.658 105.617 145.157 105.402C144.665 105.188 144.249 104.909 143.907 104.566C143.577 104.223 143.326 103.837 143.155 103.408C142.984 102.969 142.899 102.529 142.899 102.089C142.899 101.435 143.053 100.873 143.363 100.401C143.683 99.9184 144.062 99.5002 144.5 99.1464C144.158 98.7282 143.918 98.3584 143.779 98.0367C143.641 97.7043 143.571 97.3398 143.571 96.9431C143.571 96.4821 143.657 96.0693 143.827 95.7047C143.998 95.3295 144.228 95.0186 144.516 94.772C144.815 94.5254 145.167 94.3377 145.573 94.2091C145.979 94.0697 146.422 94 146.902 94C147.319 94 147.724 94.0536 148.119 94.1608C148.525 94.2573 148.883 94.4181 149.192 94.6433C149.512 94.8577 149.769 95.1419 149.961 95.4957C150.153 95.8388 150.249 96.2569 150.249 96.7501C150.249 97.3291 150.116 97.8491 149.849 98.3101C149.582 98.7711 149.224 99.1946 148.776 99.5806L150.089 100.98C150.206 100.68 150.297 100.358 150.361 100.015C150.425 99.661 150.457 99.2804 150.457 98.873H152.907C152.897 99.6986 152.801 100.444 152.619 101.108C152.438 101.762 152.192 102.352 151.883 102.878L154.429 105.563H150.441ZM147.222 103.344C147.543 103.344 147.858 103.274 148.167 103.135L146.358 101.189C145.995 101.489 145.813 101.789 145.813 102.089C145.813 102.207 145.835 102.341 145.877 102.492C145.931 102.631 146.011 102.765 146.117 102.894C146.235 103.022 146.384 103.129 146.566 103.215C146.747 103.301 146.966 103.344 147.222 103.344ZM146.326 96.8144C146.326 96.9538 146.363 97.0771 146.438 97.1843C146.523 97.2808 146.662 97.4202 146.854 97.6025C147.068 97.4524 147.222 97.3237 147.319 97.2165C147.415 97.0986 147.463 96.9538 147.463 96.7823C147.463 96.6 147.409 96.4606 147.302 96.3641C147.206 96.2676 147.073 96.2194 146.902 96.2194C146.721 96.2194 146.577 96.2784 146.47 96.3963C146.374 96.5035 146.326 96.6429 146.326 96.8144Z" fill="black"/>
<path d="M167 103.976C167 104.491 166.893 104.936 166.68 105.311C166.466 105.676 166.173 105.976 165.799 106.212C165.425 106.448 164.988 106.625 164.486 106.743C163.995 106.85 163.472 106.904 162.916 106.904H157.327V95.4849H163.925C164.32 95.4849 164.678 95.5707 164.998 95.7423C165.319 95.9138 165.591 96.139 165.815 96.4177C166.039 96.6858 166.21 96.9967 166.327 97.3505C166.456 97.6936 166.52 98.0474 166.52 98.412C166.52 98.948 166.381 99.4627 166.103 99.9559C165.836 100.438 165.431 100.803 164.886 101.049C165.537 101.242 166.05 101.58 166.423 102.063C166.808 102.534 167 103.172 167 103.976ZM163.829 103.333C163.829 103.054 163.754 102.824 163.605 102.642C163.456 102.449 163.263 102.352 163.028 102.352H160.45V104.266H162.916C163.173 104.266 163.386 104.186 163.557 104.025C163.738 103.864 163.829 103.633 163.829 103.333ZM160.45 98.1546V99.9076H162.58C162.794 99.9076 162.986 99.8487 163.157 99.7307C163.338 99.6128 163.429 99.3769 163.429 99.0231C163.429 98.7122 163.354 98.4924 163.205 98.3637C163.055 98.2243 162.879 98.1546 162.676 98.1546H160.45Z" fill="black"/>
<rect x="101.5" y="59.5" width="73" height="73" rx="36.5" stroke="black"/>
<rect x="187.5" y="0.5" width="61" height="61" rx="30.5" stroke="black"/>
<rect x="215.5" y="123.5" width="55" height="55" rx="27.5" stroke="black"/>
<rect x="39.5" y="31.5" width="35" height="35" rx="17.5" stroke="black"/>
<rect x="0.5" y="107.5" width="76" height="76" rx="38" stroke="black"/>
<path d="M70.7588 48.6164C70.0995 48.9 69.44 49.0771 68.781 49.1482C69.5253 48.7016 70.0288 48.0707 70.2911 47.2554C69.6103 47.6594 68.8838 47.9358 68.1111 48.0848C67.4305 47.3617 66.5941 47 65.6014 47C64.6516 47 63.8417 47.3349 63.1715 48.0049C62.5017 48.6748 62.1667 49.4847 62.1667 50.4346C62.1667 50.6897 62.1951 50.9521 62.2518 51.2215C60.8481 51.1506 59.5313 50.7979 58.3013 50.1635C57.0713 49.5289 56.0274 48.6835 55.1697 47.6273C54.8577 48.1589 54.7017 48.7367 54.7017 49.3605C54.7017 49.9489 54.8399 50.4949 55.1165 50.9982C55.393 51.5015 55.7652 51.909 56.2332 52.221C55.6801 52.1997 55.1626 52.0543 54.6806 51.7849V51.8275C54.6806 52.657 54.9412 53.3852 55.4621 54.0128C55.9832 54.6403 56.6408 55.0353 57.4347 55.1984C57.1369 55.2763 56.8356 55.3153 56.5308 55.3153C56.3323 55.3153 56.116 55.2976 55.8821 55.2624C56.1019 55.9499 56.506 56.5151 57.0943 56.9584C57.6827 57.4015 58.3491 57.6299 59.0935 57.6444C57.8459 58.6225 56.4245 59.1116 54.8295 59.1116C54.5246 59.1116 54.2482 59.0977 54 59.0692C55.5951 60.097 57.3532 60.6109 59.2744 60.6109C60.4937 60.6109 61.6386 60.4179 62.7088 60.0315C63.7794 59.6453 64.6938 59.1276 65.4525 58.4789C66.2108 57.8302 66.865 57.0841 67.4143 56.2405C67.9637 55.3969 68.3729 54.5161 68.6426 53.5981C68.9118 52.6799 69.0466 51.7603 69.0466 50.8385C69.0466 50.64 69.043 50.4912 69.0359 50.3919C69.7096 49.903 70.2838 49.311 70.7588 48.6164Z" fill="black"/>
<path d="M53.2899 132.726L48.4575 132.718C43.0284 132.718 39.52 136.318 39.52 141.889V146.118H34.6612C34.2414 146.118 33.9014 146.458 33.9014 146.878V153.004C33.9014 153.424 34.2417 153.764 34.6612 153.764H39.52V169.223C39.52 169.643 39.86 169.983 40.2798 169.983H46.6191C47.039 169.983 47.379 169.643 47.379 169.223V153.764H53.06C53.4798 153.764 53.8198 153.424 53.8198 153.004L53.8221 146.878C53.8221 146.676 53.7419 146.483 53.5996 146.34C53.4573 146.198 53.2635 146.118 53.0619 146.118H47.379V142.533C47.379 140.81 47.7895 139.936 50.0338 139.936L53.2891 139.934C53.7086 139.934 54.0485 139.594 54.0485 139.175V133.486C54.0485 133.067 53.7089 132.727 53.2899 132.726Z" fill="black"/>
<path d="M252.125 145H243.875C240.079 145 237 148.079 237 151.875V160.125C237 163.921 240.079 167 243.875 167H252.125C255.921 167 259 163.921 259 160.125V151.875C259 148.079 255.921 145 252.125 145ZM256.938 160.125C256.938 162.779 254.779 164.938 252.125 164.938H243.875C241.221 164.938 239.062 162.779 239.062 160.125V151.875C239.062 149.221 241.221 147.062 243.875 147.062H252.125C254.779 147.062 256.938 149.221 256.938 151.875V160.125Z" fill="black"/>
<path d="M248 150.5C244.963 150.5 242.5 152.963 242.5 156C242.5 159.037 244.963 161.5 248 161.5C251.037 161.5 253.5 159.037 253.5 156C253.5 152.963 251.037 150.5 248 150.5ZM248 159.438C246.105 159.438 244.562 157.895 244.562 156C244.562 154.104 246.105 152.562 248 152.562C249.895 152.562 251.438 154.104 251.438 156C251.438 157.895 249.895 159.438 248 159.438Z" fill="black"/>
<path d="M253.913 150.82C254.317 150.82 254.645 150.492 254.645 150.087C254.645 149.683 254.317 149.355 253.913 149.355C253.508 149.355 253.18 149.683 253.18 150.087C253.18 150.492 253.508 150.82 253.913 150.82Z" fill="black"/>
<path d="M213.5 27.1482H206.062C205.589 27.1482 205.174 27.4606 205.043 27.9153C204.911 28.3722 205.096 28.8588 205.497 29.1096C205.506 29.1159 206.233 29.5898 206.796 30.4526C205.633 31.9294 205 33.7442 205 35.6482C205 40.3359 208.812 44.1482 213.5 44.1482C218.188 44.1482 222 40.3359 222 35.6482C222 30.9604 218.188 27.1482 213.5 27.1482ZM213.5 42.0232C209.985 42.0232 207.125 39.1629 207.125 35.6482C207.125 34.0289 207.739 32.4926 208.851 31.3238C209.15 31.0093 209.229 30.5482 209.05 30.1529C208.906 29.8342 208.74 29.5388 208.564 29.2732H213.5C217.015 29.2732 219.875 32.1334 219.875 35.6482C219.875 39.1629 217.015 42.0232 213.5 42.0232Z" fill="black"/>
<path d="M225.024 39.0398C224.55 38.6977 223.887 38.7955 223.538 39.2757L222.055 41.32L220.438 39.246C220.077 38.7827 219.407 38.6977 218.946 39.0611C218.485 39.4223 218.402 40.0896 218.764 40.5528L221.25 43.7403C221.452 43.9975 221.76 44.1483 222.087 44.1483C222.093 44.1483 222.1 44.1483 222.106 44.1483C222.44 44.142 222.752 43.9805 222.946 43.7106L225.258 40.5231C225.602 40.0492 225.5 39.3841 225.024 39.0398Z" fill="black"/>
<path d="M233.341 27.4266C226.877 21.5255 217.123 21.5234 210.659 27.4266C210.225 27.8219 210.193 28.4934 210.591 28.9269C210.986 29.3625 211.657 29.3901 212.091 28.9949C217.741 23.8375 226.26 23.8375 231.909 28.9949C232.113 29.1819 232.37 29.2733 232.625 29.2733C232.914 29.2733 233.201 29.1564 233.409 28.9269C233.806 28.4934 233.774 27.8219 233.341 27.4266Z" fill="black"/>
<path d="M213.5 31.3982C211.156 31.3982 209.25 33.3043 209.25 35.6482C209.25 37.9921 211.156 39.8982 213.5 39.8982C215.844 39.8982 217.75 37.9921 217.75 35.6482C217.75 33.3043 215.844 31.3982 213.5 31.3982ZM213.5 37.7732C212.329 37.7732 211.375 36.8212 211.375 35.6482C211.375 34.4773 212.329 33.5232 213.5 33.5232C214.671 33.5232 215.625 34.4773 215.625 35.6482C215.625 36.8212 214.671 37.7732 213.5 37.7732Z" fill="black"/>
<path d="M213.542 34.5857H213.521C212.935 34.5857 212.469 35.0617 212.469 35.6482C212.469 36.2347 212.956 36.7107 213.542 36.7107C214.129 36.7107 214.605 36.2347 214.605 35.6482C214.605 35.0617 214.129 34.5857 213.542 34.5857Z" fill="black"/>
<path d="M237.202 30.4526C237.765 29.5919 238.496 29.1117 238.503 29.1096C238.904 28.8567 239.089 28.3701 238.957 27.9153C238.828 27.4606 238.411 27.1482 237.938 27.1482H230.5C225.812 27.1482 222 30.9604 222 35.6482C222 40.3359 225.812 44.1482 230.5 44.1482C235.188 44.1482 239 40.3359 239 35.6482C239 33.7463 238.367 31.9294 237.202 30.4526ZM230.5 42.0232C226.985 42.0232 224.125 39.1629 224.125 35.6482C224.125 32.1334 226.985 29.2732 230.5 29.2732H235.436C235.26 29.5388 235.094 29.8342 234.95 30.1529C234.773 30.5482 234.85 31.0114 235.149 31.3238C236.263 32.4947 236.875 34.0289 236.875 35.6482C236.875 39.1629 234.015 42.0232 230.5 42.0232Z" fill="black"/>
<path d="M230.5 31.3982C228.156 31.3982 226.25 33.3043 226.25 35.6482C226.25 37.9921 228.156 39.8982 230.5 39.8982C232.844 39.8982 234.75 37.9921 234.75 35.6482C234.75 33.3043 232.844 31.3982 230.5 31.3982ZM230.5 37.7732C229.327 37.7732 228.375 36.8212 228.375 35.6482C228.375 34.4773 229.327 33.5232 230.5 33.5232C231.673 33.5232 232.625 34.4773 232.625 35.6482C232.625 36.8212 231.673 37.7732 230.5 37.7732Z" fill="black"/>
<path d="M230.542 34.5857H230.521C229.935 34.5857 229.469 35.0617 229.469 35.6482C229.469 36.2347 229.958 36.7107 230.542 36.7107C231.129 36.7107 231.605 36.2347 231.605 35.6482C231.605 35.0617 231.129 34.5857 230.542 34.5857Z" fill="black"/>
</svg>
