<svg width="14" height="14" viewBox="0 0 14 14" fill="none" xmlns="http://www.w3.org/2000/svg">
<g opacity="0.4">
<path d="M7 10.5C8.933 10.5 10.5 8.933 10.5 7C10.5 5.067 8.933 3.5 7 3.5C5.067 3.5 3.5 5.067 3.5 7C3.5 8.933 5.067 10.5 7 10.5Z" fill="black"/>
<path d="M6.5625 0H7.4375V2.1875H6.5625V0Z" fill="black"/>
<path d="M6.5625 11.8125H7.4375V14H6.5625V11.8125Z" fill="black"/>
<path d="M11.8125 6.5625H14V7.4375H11.8125V6.5625Z" fill="black"/>
<path d="M0 6.5625H2.1875V7.4375H0V6.5625Z" fill="black"/>
<path d="M10.0908 10.7124L10.7094 10.0938L12.2558 11.6402L11.6372 12.2588L10.0908 10.7124Z" fill="black"/>
<path d="M1.73999 2.35962L2.35857 1.74105L3.90499 3.28746L3.28641 3.90603L1.73999 2.35962Z" fill="black"/>
<path d="M1.73901 11.6394L3.28542 10.093L3.904 10.7116L2.35759 12.258L1.73901 11.6394Z" fill="black"/>
<path d="M10.0918 3.28857L11.6382 1.74216L12.2568 2.36074L10.7104 3.90715L10.0918 3.28857Z" fill="black"/>
</g>
</svg>
