<svg width="14" height="14" viewBox="0 0 14 14" fill="none" xmlns="http://www.w3.org/2000/svg">
<path d="M7.00007 6.99995C7.00007 5.24995 8.45841 3.79162 10.2084 3.79162C11.7076 3.79162 12.9909 4.85912 13.3292 6.26495C13.4167 6.63828 13.1426 6.99995 12.7634 6.99995H7.00007ZM7.00007 6.99995C7.00007 8.74995 5.54174 10.2083 3.79174 10.2083C2.29257 10.2083 1.00924 9.14078 0.670904 7.73495C0.583404 7.36162 0.857571 6.99995 1.23674 6.99995H7.00007ZM7.00007 6.99995C5.25007 6.99995 3.79174 5.54162 3.79174 3.79162C3.79174 2.29245 4.85924 1.00912 6.26507 0.670782C6.6384 0.583282 7.00007 0.857449 7.00007 1.23662V6.99995ZM7.00007 6.99995C8.75007 6.99995 10.2084 8.45828 10.2084 10.2083C10.2084 11.7074 9.14091 12.9908 7.73507 13.3291C7.36174 13.4166 7.00007 13.1424 7.00007 12.7633V6.99995Z" fill="#EA7119"/>
</svg>
