<svg width="28" height="28" viewBox="0 0 28 28" fill="none" xmlns="http://www.w3.org/2000/svg">
<path d="M19.2523 13.1963C18.3097 13.1963 17.542 13.9548 17.5388 14.8912C17.5354 15.8227 18.3068 16.5981 19.24 16.6004C20.1756 16.6033 20.9441 15.8344 20.9435 14.8981C20.9429 13.9588 20.1844 13.1963 19.2523 13.1963ZM19.2523 15.76C18.7694 15.76 18.3807 15.3784 18.3818 14.9055C18.3824 14.414 18.7594 14.035 19.2469 14.0344C19.7241 14.0339 20.1151 14.4246 20.1111 14.8998C20.1054 15.3738 19.7213 15.76 19.2523 15.76Z" fill="#FC810F"/>
<path d="M8.73972 10.7458C6.4768 10.7257 4.50406 12.6142 4.5433 15.0198C4.58025 17.2632 6.42925 19.1652 8.7867 19.1446C11.0917 19.1251 12.9447 17.2423 12.949 14.9625C12.9525 12.6217 11.0771 10.7458 8.73972 10.7458ZM8.80732 17.5019C7.29117 17.5712 6.06776 16.3627 6.07034 14.8952C6.0732 13.4083 7.29833 12.2708 8.68415 12.296C10.123 12.2943 11.2908 13.4558 11.2868 14.8941C11.2831 16.3498 10.1356 17.4414 8.80732 17.5019Z" fill="#FC810F"/>
<path d="M14 0C6.26828 0 0 6.26828 0 14C0 21.7317 6.26828 28 14 28C21.7317 28 28 21.7317 28 14C28 6.26828 21.7317 0 14 0ZM22.048 19.4359C21.1932 19.979 20.2482 20.2365 19.2388 20.2419C18.8149 20.2448 18.3923 20.1878 17.9784 20.0804C16.9696 19.8186 16.1037 19.315 15.3904 18.5536C15.2959 18.4534 15.2074 18.3494 15.1077 18.2362C14.7307 18.798 14.3598 19.3511 13.9794 19.918C13.6013 19.3525 13.2346 18.8048 12.87 18.2603C12.8448 18.2732 12.8376 18.2749 12.8325 18.2789C12.8241 18.2861 12.8167 18.295 12.8107 18.3024C11.9479 19.321 10.8626 19.9449 9.5412 20.1543C8.80561 20.2706 8.07775 20.229 7.36307 20.0317C6.35106 19.7535 5.49058 19.2199 4.79566 18.4316C4.1165 17.6616 3.69399 16.7668 3.53588 15.7496C3.35456 14.8009 3.57512 13.8854 3.6304 13.6637C3.79053 13.0186 4.06895 12.4257 4.45164 11.8806C4.47857 11.8419 4.48802 11.7732 4.47513 11.7273C4.31902 11.155 4.05062 10.6343 3.73553 10.1356C3.65561 10.0092 3.55994 9.89209 3.47143 9.77035C3.47143 9.75632 3.47143 9.74228 3.47143 9.72796C3.4889 9.73025 3.50666 9.73369 3.52413 9.73369C4.58312 9.73426 5.64268 9.73426 6.70195 9.73254C6.74836 9.73254 6.79935 9.71364 6.83916 9.68843C7.58335 9.21064 8.37651 8.83253 9.20949 8.53807C9.81046 8.3261 10.4234 8.16053 11.0496 8.03908C11.6554 7.92221 12.2641 7.83943 12.8797 7.79904C14.3801 7.68331 15.5797 7.84201 16.3775 7.95343C16.9656 8.03621 17.5416 8.18459 18.1108 8.35904C19.1045 8.66496 20.0414 9.09033 20.9231 9.64145C20.9841 9.67955 21.0663 9.70361 21.1385 9.70361C22.1734 9.70819 23.2086 9.70648 24.2436 9.70762C24.3269 9.70762 24.4103 9.7165 24.4931 9.72108C24.4931 9.74114 24.4959 9.74973 24.4925 9.7546C24.4444 9.8285 24.3951 9.9024 24.347 9.97659C23.9961 10.5148 23.6959 11.0788 23.5183 11.7013C23.4994 11.7677 23.4948 11.8239 23.5401 11.8898C24.4621 13.2134 24.7554 14.6663 24.3705 16.2328C24.0322 17.6063 23.245 18.6771 22.048 19.4359Z" fill="#FC810F"/>
<path d="M8.66133 13.1963C7.74213 13.198 6.97188 13.974 6.97388 14.8966C6.97617 15.8304 7.74585 16.5984 8.68195 16.6007C9.61233 16.603 10.3832 15.8281 10.3811 14.892C10.3783 13.9471 9.61462 13.1946 8.66133 13.1963ZM8.68281 15.7689C8.18927 15.7694 7.80887 15.3885 7.80887 14.892C7.80887 14.4048 8.18869 14.0267 8.68052 14.0261C9.16433 14.0256 9.55389 14.4123 9.55618 14.8955C9.55762 15.3744 9.1649 15.7671 8.68281 15.7689Z" fill="#FC810F"/>
<path d="M19.1635 10.7612C16.8664 10.8081 15.0687 12.6594 15.0481 14.9496C15.0481 17.2758 16.9358 19.1763 19.2537 19.1675C21.5805 19.1592 23.4593 17.3122 23.4575 14.9602C23.4564 12.536 21.4897 10.7136 19.1635 10.7612ZM19.3525 17.5018C17.8427 17.5599 16.6344 16.356 16.635 14.8969C16.6356 13.4205 17.853 12.2702 19.2451 12.2954C20.685 12.2925 21.8515 13.4523 21.8515 14.8908C21.8512 16.3345 20.7048 17.4502 19.3525 17.5018Z" fill="#FC810F"/>
<path d="M15.6777 11.0681C16.608 10.2145 17.7163 9.76679 18.9735 9.67169C17.4814 9.00886 15.9082 8.72671 14.2887 8.69549C12.4486 8.65968 10.6583 8.93094 8.94849 9.6482C10.2269 9.72583 11.3498 10.1718 12.2985 11.034C13.2452 11.8957 13.8 12.9692 14.0014 14.2325C14.2088 12.9841 14.7484 11.92 15.6777 11.0681Z" fill="#FC810F"/>
</svg>
