<svg width="10" height="10" viewBox="0 0 10 10" fill="none" xmlns="http://www.w3.org/2000/svg">
<path d="M8.92319 8.48359C8.92319 8.48461 8.92319 8.48564 8.92319 8.48693C7.88631 9.42724 6.50988 10 5.00014 10C3.49015 10 2.11372 9.42724 1.07684 8.48693C1.07684 8.48564 1.07684 8.48461 1.07684 8.48359C1.07684 6.91966 1.99197 5.56968 3.31575 4.93964C3.81326 5.43587 4.39579 5.70324 5.00014 5.70324C5.60475 5.70324 6.18702 5.43587 6.68479 4.93964C8.00857 5.56968 8.92319 6.91966 8.92319 8.48359Z" fill="white"/>
<path d="M5.00013 0C6.19857 0 7.17021 0.971385 7.17021 2.16982C7.17021 3.36851 6.19857 5.00769 5.00013 5.00769C3.80169 5.00769 2.83004 3.36851 2.83004 2.16982C2.83004 0.971385 3.80169 0 5.00013 0Z" fill="white"/>
</svg>
