<svg width="14" height="14" viewBox="0 0 14 14" fill="none" xmlns="http://www.w3.org/2000/svg">
<path opacity="0.4" d="M13.3 2.54545H10.8182V0.636364C10.8182 0.286364 10.5318 0 10.1818 0C9.83182 0 9.54545 0.286364 9.54545 0.636364V2.54545H7.06364C6.68818 2.54545 6.39545 2.87 6.42727 3.24545L6.50364 4.01545C8.84545 4.55636 10.8182 6.21727 10.8182 8.90909L10.8309 14H11.9127C12.4473 14 12.8864 13.5864 12.95 13.0645L13.93 3.24545C13.9682 2.87 13.6755 2.54545 13.3 2.54545ZM8.90909 12.7273H0.636364C0.286364 12.7273 0 13.0136 0 13.3636C0 13.7136 0.286364 14 0.636364 14H8.90909C9.25909 14 9.54545 13.7136 9.54545 13.3636C9.54545 13.0136 9.25909 12.7273 8.90909 12.7273ZM0.7 8.90909H8.84545C9.24 8.90909 9.55182 8.55273 9.47545 8.17091C9.06182 6.11545 6.91727 5.08455 4.77273 5.08455C2.62818 5.08455 0.49 6.11545 0.07 8.17091C-0.00636363 8.55273 0.311818 8.90909 0.7 8.90909ZM8.90909 10.1818H0.636364C0.286364 10.1818 0 10.4682 0 10.8182C0 11.1682 0.286364 11.4545 0.636364 11.4545H8.90909C9.25909 11.4545 9.54545 11.1682 9.54545 10.8182C9.54545 10.4682 9.25909 10.1818 8.90909 10.1818Z" fill="black"/>
</svg>
