<svg width="10" height="10" viewBox="0 0 10 10" fill="none" xmlns="http://www.w3.org/2000/svg">
<g clip-path="url(#clip0)">
<path d="M3.64339 5.51695C3.64339 5.39168 3.54179 5.2902 3.41642 5.2902H2.62435C2.49912 5.2902 2.39749 5.39168 2.39749 5.51695V6.30892C2.39749 6.43435 2.49912 6.53587 2.62435 6.53587H3.41642C3.54179 6.53587 3.64339 6.43435 3.64339 6.30892V5.51695Z" fill="white"/>
<path d="M5.62284 5.51695C5.62284 5.39168 5.52121 5.2902 5.39609 5.2902H4.60393C4.4787 5.2902 4.37708 5.39168 4.37708 5.51695V6.30892C4.37708 6.43435 4.4787 6.53587 4.60393 6.53587H5.39609C5.52121 6.53587 5.62284 6.43435 5.62284 6.30892V5.51695Z" fill="white"/>
<path d="M7.6025 5.51695C7.6025 5.39168 7.50087 5.2902 7.37564 5.2902H6.58358C6.45821 5.2902 6.3566 5.39168 6.3566 5.51695V6.30892C6.3566 6.43435 6.45821 6.53587 6.58358 6.53587H7.37564C7.50087 6.53587 7.6025 6.43435 7.6025 6.30892V5.51695Z" fill="white"/>
<path d="M3.64339 7.49664C3.64339 7.37117 3.54179 7.26976 3.41642 7.26976H2.62435C2.49912 7.26976 2.39749 7.37117 2.39749 7.49664V8.28846C2.39749 8.41381 2.49912 8.51532 2.62435 8.51532H3.41642C3.54179 8.51532 3.64339 8.41379 3.64339 8.28846V7.49664Z" fill="white"/>
<path d="M5.62284 7.49664C5.62284 7.37117 5.52121 7.26976 5.39609 7.26976H4.60393C4.4787 7.26976 4.37708 7.37117 4.37708 7.49664V8.28846C4.37708 8.41381 4.4787 8.51532 4.60393 8.51532H5.39609C5.52121 8.51532 5.62284 8.41379 5.62284 8.28846V7.49664Z" fill="white"/>
<path d="M7.6025 7.49664C7.6025 7.37117 7.50087 7.26976 7.37575 7.26976H6.58358C6.45821 7.26976 6.3566 7.37117 6.3566 7.49664V8.28846C6.3566 8.41381 6.45821 8.51532 6.58358 8.51532H7.37575C7.50087 8.51532 7.6025 8.41379 7.6025 8.28846V7.49664Z" fill="white"/>
<path d="M9.01878 1.11347V2.32313C9.01878 2.86989 8.57523 3.31049 8.02856 3.31049H7.4039C6.85718 3.31049 6.40775 2.86989 6.40775 2.32313V1.10912H3.59224V2.32313C3.59224 2.86989 3.14283 3.31049 2.59619 3.31049H1.97141C1.42475 3.31049 0.981224 2.86989 0.981224 2.32313V1.11347C0.503443 1.12787 0.11084 1.52322 0.11084 2.00915V9.09839C0.11084 9.59346 0.512108 10.0001 1.00718 10.0001H8.99281C9.48714 10.0001 9.88915 9.59262 9.88915 9.09839V2.00915C9.88915 1.52322 9.49656 1.12787 9.01878 1.11347ZM8.72865 8.65692C8.72865 8.87087 8.55518 9.04445 8.34114 9.04445H1.64178C1.42775 9.04445 1.25427 8.87087 1.25427 8.65692V4.99508C1.25427 4.78105 1.42772 4.60747 1.64178 4.60747H8.34112C8.55516 4.60747 8.72863 4.78105 8.72863 4.99508L8.72865 8.65692Z" fill="white"/>
<path d="M1.96925 2.66198H2.58713C2.77467 2.66198 2.92673 2.51014 2.92673 2.3226V0.339505C2.92673 0.15194 2.77467 0 2.58713 0H1.96925C1.78168 0 1.62964 0.15194 1.62964 0.339505V2.3226C1.62964 2.51014 1.78168 2.66198 1.96925 2.66198Z" fill="white"/>
<path d="M7.39595 2.66198H8.01383C8.20125 2.66198 8.35332 2.51014 8.35332 2.3226V0.339505C8.35334 0.15194 8.20127 0 8.01383 0H7.39595C7.20843 0 7.05637 0.15194 7.05637 0.339505V2.3226C7.05637 2.51014 7.20843 2.66198 7.39595 2.66198Z" fill="white"/>
</g>
<defs>
<clipPath id="clip0">
<rect width="10" height="10" fill="white"/>
</clipPath>
</defs>
</svg>
